<svg xmlns="http://www.w3.org/2000/svg" viewBox="0 0 32 32" width="32" height="32">
  <defs>
    <linearGradient id="bgGradient" x1="0%" y1="0%" x2="100%" y2="100%">
      <stop offset="0%" style="stop-color:#B08D55;stop-opacity:1" />
      <stop offset="100%" style="stop-color:#9A7B4F;stop-opacity:1" />
    </linearGradient>
  </defs>
  
  <!-- Background circle -->
  <circle cx="16" cy="16" r="15" fill="url(#bgGradient)" stroke="#1a1a1a" stroke-width="1"/>
  
  <!-- Letter G -->
  <path d="M12 8 C8 8 6 10 6 14 L6 18 C6 22 8 24 12 24 L18 24 C20 24 22 22 22 20 L22 16 L16 16 L16 18 L20 18 L20 20 C20 21 19 22 18 22 L12 22 C9 22 8 21 8 18 L8 14 C8 11 9 10 12 10 L18 10 C19 10 20 11 20 12 L22 12 C22 10 20 8 18 8 Z" 
        fill="#F3EFE0" 
        stroke="#1a1a1a" 
        stroke-width="0.5"/>
</svg>